<svg xmlns="http://www.w3.org/2000/svg" xmlns:xlink="http://www.w3.org/1999/xlink" width="1920" zoomAndPan="magnify" viewBox="0 0 1440 809.999993" height="1080" preserveAspectRatio="xMidYMid meet" version="1.2"><g id="904e21d292"><path style=" stroke:none;fill-rule:nonzero;fill:#774922;fill-opacity:1;" d="M 1168.398438 373.042969 C 1156.886719 380.878906 1159.699219 392.882812 1164.546875 405.738281 C 1168.609375 416.523438 1162.152344 437.886719 1148.335938 444.777344 C 1145.066406 446.410156 1142.570312 447.597656 1143.089844 452.089844 C 1143.539062 455.964844 1139.761719 458.011719 1137.335938 460.203125 C 1131.652344 465.351562 1125.894531 470.601562 1119.4375 474.644531 C 1114.734375 477.589844 1114.445312 480.410156 1116.351562 484.753906 C 1121.125 495.644531 1125.636719 506.652344 1130.578125 517.464844 C 1136.984375 531.484375 1143.75 545.625 1146.042969 560.785156 C 1149.175781 581.527344 1145.457031 601.183594 1132.582031 618.976562 C 1121.820312 633.847656 1110.132812 647.792969 1097.949219 661.445312 C 1083.296875 677.863281 1066.15625 673.15625 1054.308594 659.34375 C 1032.867188 634.34375 1021.558594 604.519531 1013.375 573.234375 C 1009.070312 556.78125 1000.03125 543.679688 985.835938 534.449219 C 983.242188 532.761719 981.136719 530.484375 979.695312 528.472656 C 970.191406 515.226562 954.914062 514.082031 941.46875 508.855469 C 930.417969 504.558594 919.78125 499.460938 907.960938 497.128906 C 889.472656 493.476562 870.875 492.417969 852.101562 492.03125 C 836.628906 491.710938 821.277344 492.046875 806.074219 494.90625 C 797.285156 496.558594 788.605469 498.785156 779.847656 500.605469 C 774.40625 501.734375 773.476562 503.921875 776.511719 508.863281 C 781.941406 517.703125 788.140625 526.4375 788.558594 537.34375 C 789.3125 556.835938 781.695312 573.769531 770.859375 589.191406 C 759.015625 606.042969 753.953125 623.421875 754.738281 644.78125 C 755.839844 674.8125 749.871094 704.246094 729.800781 729.050781 C 723.90625 736.335938 723.386719 746.425781 722.574219 755.84375 C 721.914062 763.464844 720.898438 771.0625 719.90625 778.652344 C 718.90625 786.320312 714.921875 792.824219 710.597656 798.847656 C 704.761719 806.976562 690.886719 810.03125 681.238281 805.335938 C 671.753906 800.722656 661.929688 799.691406 651.804688 800.964844 C 637.257812 802.789062 625.566406 798.328125 616.921875 786.386719 C 611.289062 778.605469 603.242188 774.75 594.289062 772.589844 C 583.445312 769.972656 575.339844 765.152344 573.15625 752.894531 C 569.335938 731.433594 563.785156 710.214844 563.359375 688.292969 C 563.09375 674.789062 567.515625 662.015625 571.3125 649.222656 C 574.753906 637.621094 578.605469 626.050781 574.753906 613.78125 C 573.207031 608.871094 571.8125 603.816406 569.507812 599.253906 C 563.496094 587.351562 565.664062 575.160156 569.351562 563.742188 C 575.699219 544.082031 575.421875 524.625 569.855469 505.300781 C 565.277344 489.402344 569.140625 477.222656 583.347656 469.113281 C 586.050781 467.574219 590.347656 466.386719 590.542969 463.554688 C 590.796875 459.933594 586.0625 459.359375 583.316406 458.289062 C 572.804688 454.195312 563.628906 447.738281 554.308594 441.75 C 541.65625 433.621094 528.210938 431.117188 513.566406 431.902344 C 495.363281 432.878906 477.589844 430.472656 460.542969 423.667969 C 453.945312 421.03125 447.046875 419.453125 440.511719 416.28125 C 434.085938 413.15625 426.597656 412.71875 419.109375 415.460938 C 403.800781 421.0625 387.425781 420.519531 371.597656 420.824219 C 350.476562 421.234375 332.269531 428.855469 314.066406 437.882812 C 298.96875 445.367188 284.804688 454.109375 271.234375 464.234375 C 263.796875 469.78125 254.449219 473.570312 244.351562 473.800781 C 234.882812 474.019531 228.304688 470.125 222.523438 462.582031 C 212.160156 449.054688 208.980469 433.085938 205.046875 417.261719 C 203.3125 410.277344 201.378906 403.335938 199.914062 396.300781 C 197.324219 383.835938 202.445312 372.554688 206.070312 361.164062 C 208.253906 354.320312 208.859375 347.558594 208.265625 340.496094 C 206.726562 322.171875 210.890625 306.28125 226.78125 294.78125 C 236.886719 287.46875 247.894531 281.605469 257.996094 274.355469 C 268.96875 266.484375 279.746094 258.332031 290.550781 250.226562 C 305.664062 238.894531 322.992188 232.539062 341.183594 228.808594 C 353.230469 226.339844 353.449219 227.121094 352.882812 215.273438 C 352.539062 208.070312 351.519531 200.839844 348.976562 194.160156 C 345.273438 184.4375 346.992188 176.636719 354.609375 169.660156 C 365.644531 159.554688 376.140625 148.664062 390.972656 144.089844 C 398.316406 141.828125 405.769531 139.527344 413.347656 138.503906 C 428.496094 136.457031 438.378906 127.386719 444.25 114.570312 C 450.085938 101.835938 458.304688 97.25 471.628906 100.96875 C 485.207031 104.757812 499.578125 104.875 512.566406 111.785156 C 526.308594 119.09375 538.046875 128.527344 549.3125 139.074219 C 567.484375 156.09375 580.292969 176.808594 592.273438 198.222656 C 596.019531 204.914062 600.949219 210.742188 605.816406 216.617188 C 607.082031 218.144531 607.988281 220.269531 610.386719 219.453125 C 612.175781 218.84375 612.355469 216.988281 612.851562 215.226562 C 619.113281 192.9375 625.898438 170.789062 631.8125 148.410156 C 636.304688 131.402344 638.355469 113.816406 643.441406 96.90625 C 646.820312 85.660156 649.367188 74.28125 655.339844 63.800781 C 659.652344 56.230469 661.9375 47.84375 667.785156 40.640625 C 673.109375 34.082031 680.171875 30.535156 686.074219 25.210938 C 697.179688 15.191406 711 14.671875 725.003906 14.121094 C 745.976562 13.300781 765.222656 5.449219 784.699219 -1.507812 C 798.519531 -6.445312 812.515625 -10.929688 827.707031 -9.304688 C 836.617188 -8.347656 843.757812 -4.554688 849.789062 1.65625 C 860.78125 12.96875 867.964844 26.535156 873.65625 41.167969 C 879.464844 56.109375 885.535156 71.097656 893.945312 84.742188 C 905.347656 103.242188 906.476562 122.988281 904.546875 143.765625 C 901.101562 180.8125 890.246094 216.226562 881.660156 252.15625 C 880.796875 255.769531 878.320312 260.425781 886.277344 258.078125 C 925.339844 246.566406 964.429688 249.539062 1003.585938 258.074219 C 1045.324219 267.175781 1085.246094 281.054688 1121.417969 304.015625 C 1139.300781 315.367188 1156.195312 328.441406 1168.613281 346.140625 C 1175.261719 355.613281 1175.269531 360.847656 1168.390625 373.042969 Z M 671.667969 383.808594 C 671.46875 384.546875 671.484375 385.265625 672.460938 385.171875 C 672.636719 385.152344 672.710938 384.046875 672.832031 383.445312 C 672.777344 382.523438 672.726562 381.265625 671.4375 381.78125 C 669.957031 382.371094 671.222656 383.152344 671.667969 383.808594 Z M 632.109375 328.75 C 632.402344 327.367188 631.585938 326.519531 630.585938 325.855469 C 630.40625 325.738281 629.527344 326.171875 629.5 326.410156 C 629.351562 327.769531 630.261719 328.527344 631.328125 329.132812 C 631.867188 329.839844 632.375 330.578125 632.980469 331.222656 C 633.054688 331.300781 633.640625 330.894531 633.988281 330.714844 C 633.363281 330.058594 632.738281 329.402344 632.109375 328.75 Z M 817.195312 208.570312 C 797.496094 221.984375 783.492188 240.769531 767.414062 257.472656 C 746.785156 278.898438 734.152344 305.464844 720.867188 331.347656 C 714.023438 344.683594 711.378906 360.199219 707.039062 374.792969 C 703.289062 387.402344 703.203125 400.949219 696.792969 412.925781 C 691.53125 422.753906 692.40625 423.636719 703.433594 424.980469 C 707.847656 425.515625 709.125 423.800781 709.816406 420.070312 C 710.722656 415.167969 712.171875 410.367188 713.023438 405.457031 C 719.164062 370.15625 736.4375 340.132812 756.6875 311.320312 C 763.78125 301.230469 775.773438 294.121094 776.6875 280.035156 C 776.730469 279.394531 777.441406 278.761719 777.914062 278.183594 C 790.90625 262.25 807.496094 250.777344 825.167969 240.828125 C 832.09375 236.925781 837.429688 238.90625 840.324219 244.960938 C 843.117188 250.804688 840.984375 256.273438 834.058594 259.460938 C 826.976562 262.71875 820.691406 267.21875 814.039062 271.152344 C 801.972656 278.289062 794.945312 292.539062 779.800781 295.277344 C 779.191406 295.386719 778.691406 296.246094 778.1875 296.800781 C 759.214844 317.664062 743.882812 340.945312 732.3125 366.65625 C 724.394531 384.246094 720.207031 403.101562 714.34375 421.382812 C 713.679688 423.449219 709.976562 427.96875 715.414062 428.121094 C 719.539062 428.238281 726.03125 433.484375 728.25 424.699219 C 734.480469 400.023438 745.285156 377.257812 757.730469 355.214844 C 767.34375 338.1875 778.292969 322.109375 792.246094 308.277344 C 793.851562 306.683594 795.929688 303.691406 798.472656 306.1875 C 800.710938 308.382812 798.546875 310.828125 796.984375 312.773438 C 781.113281 332.566406 768.253906 354.277344 756.890625 376.859375 C 751.25 388.074219 746.570312 399.769531 741.449219 411.246094 C 744.863281 411.066406 747.234375 410.183594 749.085938 408.667969 C 758.921875 400.628906 768.992188 392.816406 778.3125 384.207031 C 798.570312 365.503906 814.269531 342.777344 832.246094 322.054688 C 845.265625 307.050781 857.09375 291.59375 864.871094 273.039062 C 871.789062 256.535156 875.515625 239.292969 879.75 222.074219 C 886.972656 192.695312 894.375 163.414062 895.476562 132.953125 C 895.945312 119.996094 895.164062 107.316406 888.582031 95.851562 C 877.578125 76.691406 869.269531 56.332031 860.984375 35.9375 C 856.804688 25.644531 851.039062 16.378906 843.394531 8.257812 C 838.109375 2.644531 831.777344 -0.167969 824.078125 -0.105469 C 818.285156 -0.0546875 812.664062 0.976562 807.015625 2.167969 C 792.996094 5.117188 779.691406 10.269531 766.257812 15.03125 C 750.003906 20.792969 733.058594 22.082031 716.035156 22.832031 C 700.226562 23.527344 685.917969 29.601562 676.757812 41.695312 C 664.09375 58.417969 655.457031 77.828125 650.644531 98.523438 C 642.726562 132.5625 635.441406 166.769531 624.308594 199.964844 C 617.429688 220.476562 613.054688 241.390625 613.363281 263.097656 C 613.464844 270.042969 613.375 277.1875 617.851562 283.230469 C 638.980469 311.746094 654.117188 343.511719 668.089844 375.910156 C 668.941406 377.878906 668.625 381.152344 672.558594 380.953125 C 672.59375 379.378906 672.761719 377.914062 672.640625 376.472656 C 669.382812 337.449219 665.179688 298.546875 657.875 260.03125 C 657.460938 257.84375 655.269531 254.394531 658.511719 253.476562 C 662.074219 252.464844 662.515625 256.605469 663.222656 258.984375 C 665.28125 265.929688 667.152344 272.949219 668.71875 280.023438 C 677.386719 319.167969 677.925781 359.042969 679.25 398.847656 C 679.414062 403.777344 679.308594 408.828125 683.027344 414.5625 C 683.902344 409.632812 684.558594 406.25 685.101562 402.847656 C 691.128906 365.117188 698.226562 327.503906 697.433594 289.035156 C 697.300781 282.570312 698 275.96875 690.507812 272.382812 C 689.144531 271.726562 688.515625 269.003906 688.03125 267.109375 C 682.695312 246.277344 677.605469 225.382812 674.621094 204.058594 C 673.785156 198.101562 674.148438 192.007812 676.878906 186.445312 C 679.566406 180.96875 683.320312 180.449219 687.394531 184.933594 C 691.378906 189.324219 693.289062 194.78125 694.464844 200.46875 C 697.347656 214.425781 700.507812 228.351562 702.804688 242.410156 C 704.679688 253.890625 711.027344 265.480469 703.292969 277.195312 C 702.855469 277.859375 703.332031 279.148438 703.417969 280.140625 C 705.902344 308.75 703.003906 337.035156 698.308594 365.214844 C 697.144531 372.226562 696.082031 379.257812 694.96875 386.277344 C 718.308594 321.679688 731.742188 255.347656 731.972656 185.824219 C 727.628906 188.453125 724.6875 193.152344 719.96875 190.039062 C 715.511719 187.101562 716.144531 182.171875 716.933594 177.707031 C 718.277344 170.09375 719.503906 162.414062 721.597656 154.992188 C 723.980469 146.558594 727.347656 138.414062 734.84375 132.933594 C 738.074219 130.570312 741.464844 127.636719 745.667969 130.371094 C 749.5625 132.902344 748.453125 137.066406 747.664062 140.671875 C 746.65625 145.300781 744.933594 149.769531 743.933594 154.398438 C 742.207031 162.386719 737.253906 169.460938 737.8125 178.132812 C 739.523438 204.617188 738.816406 231.03125 735.003906 257.332031 C 734.699219 259.421875 733.621094 261.769531 735.515625 264.382812 C 754.148438 225.832031 773.835938 188.59375 794.433594 152.160156 C 793.441406 150.542969 792.40625 151.046875 791.453125 151.066406 C 781.359375 151.285156 778.367188 147.3125 781.054688 137.632812 C 782.519531 132.347656 786.445312 129.347656 790.664062 126.617188 C 799.757812 120.722656 809.980469 117.285156 819.917969 113.175781 C 826.058594 110.636719 829.171875 114.726562 831.378906 118.429688 C 833.683594 122.300781 833.378906 126.90625 828.570312 130.023438 C 823.125 133.554688 818.238281 138.011719 812.59375 141.148438 C 806.371094 144.609375 802.648438 149.648438 799.152344 155.636719 C 788.804688 173.367188 778.820312 191.324219 770.972656 210.242188 C 765.09375 224.410156 754.832031 236.046875 749.714844 250.582031 C 745.441406 262.71875 740.445312 274.597656 737.328125 287.175781 C 743.683594 276.660156 750.605469 266.625 758.226562 257.109375 C 776.34375 234.492188 794.011719 211.347656 820.550781 197.535156 C 823.25 196.132812 824.078125 193.722656 825.269531 191.175781 C 829.269531 182.605469 832.75 173.617188 840.203125 167.210938 C 843.773438 164.140625 847.574219 163.492188 851.828125 166.355469 C 855.863281 169.066406 855.789062 172.773438 854.160156 176.277344 C 847.664062 190.285156 842.351562 205 831.582031 216.605469 C 826.417969 222.167969 820.949219 220.964844 818.34375 213.933594 C 817.738281 212.300781 819.273438 210.429688 817.1875 208.570312 Z M 660.394531 409.390625 C 654.03125 394.875 647.367188 382.683594 636 373.792969 C 618.613281 360.195312 604.164062 343.75 590.34375 326.726562 C 579.480469 313.347656 567.839844 300.699219 555.339844 288.875 C 536.25 270.808594 512.761719 259.265625 490.679688 245.609375 C 461.675781 227.667969 430.433594 223.660156 397.050781 227.480469 C 374.863281 230.019531 353.304688 234.898438 331.644531 239.816406 C 321.722656 242.074219 312.1875 245.085938 304.21875 251.320312 C 283.167969 267.796875 260.984375 282.488281 237.59375 295.398438 C 235.855469 296.359375 234.222656 297.546875 232.664062 298.785156 C 219.453125 309.304688 212.089844 322.421875 214.867188 339.835938 C 216.578125 350.550781 214.734375 360.710938 210.710938 370.613281 C 208.050781 377.164062 205.710938 384.117188 206.910156 391.027344 C 210.542969 411.949219 214.808594 432.792969 224.714844 451.894531 C 226.535156 455.40625 228.945312 458.703125 231.546875 461.699219 C 236.65625 467.589844 243.21875 467.984375 250.917969 465.421875 C 261.121094 462.019531 269.367188 455.640625 278.140625 449.949219 C 311.292969 428.441406 346.070312 411.792969 386.957031 412.421875 C 404.753906 412.695312 420.882812 407.15625 437.046875 399.210938 C 470.984375 382.535156 505.65625 380.605469 539.34375 401.132812 C 547.976562 406.394531 557.121094 410.410156 566.996094 412.328125 C 585.007812 415.828125 600.183594 424 612.765625 437.464844 C 622.925781 448.339844 636.015625 454.039062 651.785156 457.296875 C 648.484375 450.125 647.539062 442.847656 642.488281 438.039062 C 623.933594 420.371094 602.488281 406.824219 579.652344 395.371094 C 577.34375 394.210938 574.59375 393.359375 572.867188 389.742188 C 586.714844 391.074219 596.75 399.332031 608.023438 404.671875 C 619.722656 410.214844 628.066406 420.570312 639.71875 426.4375 C 640.542969 412.492188 637.742188 408.019531 627.597656 400.078125 C 614.996094 390.21875 600.382812 384.28125 586.410156 377.125 C 548.210938 357.558594 513.21875 333.109375 478.996094 307.457031 C 476.128906 305.308594 472.230469 303.730469 470.261719 297.382812 C 479.746094 303.511719 487.613281 308.234375 495.09375 313.507812 C 506.421875 321.492188 516.96875 330.710938 528.769531 337.886719 C 555.683594 354.253906 583.675781 368.730469 611.820312 382.894531 C 622.953125 388.496094 634.160156 394.289062 641.257812 405.316406 C 641.8125 406.171875 642.535156 407.371094 643.460938 406.796875 C 649.105469 403.300781 653.828125 407.179688 660.390625 409.390625 Z M 642.640625 472.582031 C 632.722656 472.738281 623.34375 472.644531 615.359375 468.976562 C 602.351562 462.996094 593.070312 468.21875 583.878906 476.210938 C 583.3125 476.699219 582.828125 477.332031 582.1875 477.683594 C 574.886719 481.636719 573.582031 488.363281 574.3125 495.664062 C 574.730469 499.84375 575.949219 503.992188 577.191406 508.035156 C 579.640625 516.007812 581.210938 524.179688 580.4375 532.433594 C 579.167969 545.972656 577.558594 559.511719 575.34375 572.925781 C 573.949219 581.351562 573.941406 589.355469 577.636719 597.089844 C 586.328125 615.277344 586.011719 633.617188 579.820312 652.511719 C 575.546875 665.554688 572.167969 678.902344 573.136719 692.9375 C 574.558594 713.511719 579.699219 733.382812 584.261719 753.363281 C 585.644531 759.414062 589.710938 763.261719 595.648438 763.804688 C 609.496094 765.070312 619.25 772.714844 627.285156 783.09375 C 632.535156 789.871094 639.160156 792.882812 647.515625 791.941406 C 660.441406 790.492188 672.75 792.109375 684.941406 796.988281 C 694.996094 801.011719 703.570312 796.914062 708.683594 787.28125 C 711.8125 781.394531 712.777344 774.953125 713.28125 768.488281 C 714.847656 748.363281 719.308594 729.890625 731.09375 712.328125 C 745.148438 691.378906 748.550781 666.425781 747.550781 641.183594 C 747.105469 629.917969 747.433594 618.933594 751.757812 608.0625 C 757.015625 594.84375 766.917969 584.519531 772.757812 571.773438 C 778.605469 559.007812 785.503906 545.902344 780.027344 531.644531 C 772.761719 512.730469 762.644531 495.578125 742.480469 487.113281 C 739.03125 485.667969 737.570312 484.742188 736.875 489.65625 C 733.726562 511.902344 728.796875 533.886719 727.082031 556.351562 C 726.984375 557.589844 726.734375 558.824219 726.5 560.046875 C 726.226562 561.480469 726.175781 563.289062 724.101562 563.144531 C 722.675781 563.042969 722.257812 561.597656 721.894531 560.4375 C 720.605469 556.289062 720.847656 552.011719 721.125 547.78125 C 722.449219 527.527344 725.835938 507.617188 731.773438 488.195312 C 733.175781 483.605469 732.84375 481.007812 727.414062 479.710938 C 719.664062 477.859375 712.054688 475.308594 704.523438 472.667969 C 700.578125 471.28125 698.742188 472.488281 696.902344 475.996094 C 688.960938 491.125 683.28125 507.105469 678.742188 523.5 C 669.332031 557.503906 667.828125 592.480469 666.238281 627.441406 C 666.09375 630.640625 667.082031 634.253906 663.894531 637.449219 C 661.386719 633.507812 660.976562 629.703125 660.765625 625.726562 C 659.957031 610.457031 660.417969 595.199219 662.160156 580.054688 C 666.421875 542.949219 672.085938 506.160156 692.589844 473.683594 C 694.464844 470.710938 693.296875 470.222656 690.605469 469.207031 C 680.25 465.308594 669.917969 468.03125 659.554688 468.761719 C 656.269531 468.996094 654.460938 470.609375 652.367188 473.125 C 643.886719 483.308594 638.347656 495.136719 633.972656 507.304688 C 630.300781 517.515625 624.210938 527.042969 624.359375 538.628906 C 624.417969 543.171875 624.882812 548.421875 620.25 552.050781 C 613.851562 522.214844 628.003906 497.921875 642.636719 472.589844 Z M 1022.425781 384.601562 C 1000.09375 371.796875 981.691406 360.480469 961.195312 353.621094 C 932.339844 343.960938 903.992188 341.21875 878.121094 362.296875 C 860.6875 376.5 840.046875 384 818.628906 389.6875 C 806.789062 392.832031 794.914062 395.726562 783.609375 400.703125 C 769.242188 407.03125 754.089844 411.726562 742.191406 422.726562 C 740.144531 424.621094 734.472656 423.253906 735.75 427.859375 C 736.804688 431.667969 741.347656 429.664062 744.273438 429.714844 C 775.734375 430.257812 807.285156 429.296875 838.636719 431.339844 C 886.34375 434.449219 928.023438 450.984375 957.898438 490.96875 C 967.902344 504.355469 979.453125 516.746094 993.0625 526.617188 C 1011.222656 539.792969 1020.597656 557.542969 1026.855469 578.828125 C 1034.734375 605.632812 1045.332031 631.734375 1064.988281 652.804688 C 1074.949219 663.488281 1081.796875 663.890625 1091.792969 653.320312 C 1101.394531 643.171875 1110.609375 632.632812 1119.582031 621.917969 C 1139.570312 598.039062 1143.527344 571.664062 1131.460938 542.8125 C 1118.921875 512.828125 1106.6875 482.699219 1092.660156 453.367188 C 1083.640625 434.511719 1072.066406 417.363281 1055.628906 403.988281 C 1044.464844 394.90625 1030.917969 389.867188 1022.425781 384.601562 Z M 777.414062 393.550781 C 789.566406 393.320312 799.535156 387.886719 810.191406 384.679688 C 834.476562 377.371094 857.617188 367.757812 877.835938 351.796875 C 887.695312 344.011719 898.996094 338.363281 912.003906 337.703125 C 935.382812 336.519531 957.53125 341.007812 978.898438 350.851562 C 997.796875 359.5625 1015.113281 371.222656 1033.957031 379.792969 C 1058.59375 390.992188 1076.890625 408.515625 1090.976562 431.085938 C 1091.796875 432.398438 1091.785156 434.320312 1094.382812 434.328125 C 1106.59375 434.351562 1118.335938 437.527344 1130.203125 439.917969 C 1139.535156 441.792969 1147.648438 437.804688 1152.324219 429.6875 C 1157.527344 420.664062 1159.039062 411.199219 1154.300781 401.75 C 1148.414062 390.003906 1150.964844 380.375 1159.390625 370.984375 C 1167.882812 361.515625 1167.738281 357.652344 1160.03125 347.460938 C 1148.882812 332.71875 1134.441406 321.484375 1119.242188 311.457031 C 1086.824219 290.054688 1051.035156 276.464844 1013.492188 266.824219 C 971.136719 255.949219 929.109375 251.894531 886.597656 266.308594 C 879.347656 268.769531 875.050781 271.5 871.730469 278.527344 C 855.375 313.171875 827.4375 339.199219 803.410156 368.089844 C 795.691406 377.367188 786.128906 385.105469 777.410156 393.550781 Z M 676.296875 416.574219 C 672.382812 407.03125 669.152344 397.929688 664.988281 389.28125 C 658.59375 375.996094 654.644531 361.53125 643.027344 350.820312 C 637.65625 345.867188 631.839844 341.035156 627.183594 335.234375 C 619.058594 325.117188 611.3125 314.675781 602.855469 304.847656 C 599.050781 300.429688 596.804688 291.4375 587.484375 297.023438 C 586.296875 297.734375 585.222656 296.347656 584.050781 295.53125 C 580.839844 293.300781 579.496094 289.925781 578.992188 286.730469 C 577.375 276.554688 572.320312 269.003906 564.820312 261.949219 C 546.835938 245.042969 530.007812 226.925781 510.34375 211.808594 C 506.519531 208.871094 501.410156 206.714844 498.789062 199.660156 C 529.847656 214.484375 550.5625 239.371094 575.089844 261.265625 C 575.226562 252.527344 575.210938 245.296875 575.507812 238.082031 C 575.640625 234.785156 576.457031 231.253906 580.164062 230.28125 C 583.777344 229.335938 586.804688 230.964844 589.507812 233.675781 C 594.667969 238.847656 593.277344 245.273438 593.320312 251.390625 C 593.414062 264.546875 594.570312 266.335938 607.457031 271.25 C 606.527344 258.367188 607.375 245.714844 609.570312 233.164062 C 610.09375 230.191406 609.484375 227.878906 607.351562 225.746094 C 594.703125 213.074219 585.4375 198.035156 576.527344 182.625 C 562.546875 158.445312 542.964844 139.367188 520.253906 123.359375 C 506.667969 113.78125 490.539062 112.253906 474.96875 108.886719 C 458.40625 105.304688 457.550781 105.582031 449.761719 120.242188 C 442.480469 133.9375 432.550781 143.84375 416.222656 146.082031 C 408.589844 147.128906 401.128906 149.585938 393.65625 151.640625 C 377.609375 156.050781 367.128906 167.964844 356.664062 179.726562 C 353.914062 182.8125 353.726562 186.210938 359.078125 187.28125 C 376.179688 190.691406 391.59375 198.425781 407.007812 206.113281 C 420.894531 213.035156 435.160156 218.726562 450.195312 222.84375 C 464.492188 226.761719 478.808594 230.835938 492.070312 237.984375 C 506.65625 245.847656 519.851562 255.699219 533.457031 265.007812 C 559.632812 282.921875 583.144531 303.601562 601.3125 329.757812 C 609.851562 342.050781 619.972656 353 632.03125 361.246094 C 648.972656 372.828125 657.847656 389.589844 666.007812 407.089844 C 668.175781 411.746094 670.394531 415.042969 676.292969 416.570312 Z M 960.347656 508.171875 C 957.097656 504.222656 953.511719 500.496094 950.648438 496.277344 C 929.050781 464.472656 897.4375 448.578125 861.136719 441.167969 C 823.648438 433.519531 785.414062 435.261719 747.628906 437.203125 C 719.804688 438.632812 694.429688 430.71875 668.3125 424.691406 C 666.679688 424.316406 664.976562 423.320312 663.777344 422.132812 C 658.65625 417.066406 651.492188 416.347656 644.796875 411.84375 C 646.707031 428.558594 652.007812 442.816406 656.980469 457.148438 C 658.0625 460.269531 660.949219 460.503906 663.777344 460.75 C 675.851562 461.804688 687.957031 461.457031 700.003906 464.207031 C 725.15625 469.953125 748.914062 478.183594 768.230469 496.152344 C 769.410156 497.253906 770.425781 497.726562 772.179688 497.253906 C 778.109375 495.644531 784.113281 494.300781 790.09375 492.886719 C 830.53125 483.320312 871.1875 481.9375 911.976562 490.230469 C 928.882812 493.664062 944.175781 501.628906 960.347656 508.175781 Z M 436.832031 407.796875 C 443.332031 409.402344 448.539062 410.765625 453.507812 413.003906 C 469.484375 420.195312 485.621094 426.074219 503.824219 424.894531 C 525.988281 423.460938 546.71875 428.078125 565.546875 441.09375 C 578.503906 450.050781 593.308594 455.921875 608.550781 460.0625 C 618.609375 462.796875 628.789062 465.839844 639.796875 464.101562 C 622.410156 459.386719 610.234375 447.507812 598.15625 435.488281 C 591.011719 428.378906 582.085938 424.703125 572.511719 422.316406 C 558.675781 418.867188 544.789062 415.363281 532.917969 407.042969 C 517.132812 395.980469 499.382812 393.417969 480.828125 394.351562 C 465.550781 395.121094 450.984375 398.601562 436.832031 407.800781 Z M 415.113281 218.640625 C 396.164062 210.109375 378.699219 198.980469 357.832031 194.179688 C 359.824219 203.664062 361.195312 212.292969 360.835938 221.03125 C 360.640625 225.804688 362.566406 226.269531 366.613281 225.417969 C 375.40625 223.566406 384.339844 222.636719 393.304688 221.839844 C 400.609375 221.1875 407.847656 219.738281 415.113281 218.640625 Z M 1096.347656 439.425781 C 1102.125 451.847656 1107.277344 462.914062 1112.714844 474.597656 C 1120.03125 468.152344 1127.140625 462.011719 1134.082031 455.691406 C 1136.167969 453.792969 1140.132812 452.253906 1138.972656 448.992188 C 1137.96875 446.160156 1134.707031 449.578125 1132.324219 448.644531 C 1129.804688 447.652344 1126.984375 447.449219 1124.328125 446.765625 C 1115.421875 444.464844 1106.527344 442.101562 1096.347656 439.425781 Z M 627.972656 326.058594 C 624.269531 304.429688 607.347656 278.402344 594.488281 272.015625 C 594.136719 278.722656 593.9375 284.738281 599.28125 290.042969 C 604.210938 294.933594 608.222656 300.757812 612.550781 306.242188 C 617.738281 312.808594 622.832031 319.449219 627.96875 326.058594 Z M 693.414062 392.097656 C 695.0625 391.304688 695.570312 390.339844 695.460938 388.441406 Z M 775.789062 395.09375 C 775.863281 395.367188 775.929688 395.59375 775.992188 395.820312 C 776.300781 395.613281 776.652344 395.441406 776.894531 395.171875 C 776.980469 395.078125 776.792969 394.738281 776.726562 394.511719 C 776.410156 394.707031 776.09375 394.902344 775.789062 395.09375 Z M 775.789062 395.09375 "/><path style=" stroke:none;fill-rule:nonzero;fill:#774922;fill-opacity:1;" d="M 1049.800781 452.238281 C 1041.574219 442.148438 1032.867188 433.851562 1022.953125 426.769531 C 982.859375 398.121094 940.265625 382.550781 889.992188 395.964844 C 859.359375 404.144531 828.03125 409.820312 795.976562 410.078125 C 786.28125 410.15625 776.609375 412.550781 766.773438 413.046875 C 776.003906 407.777344 786.457031 406.734375 796.457031 406.105469 C 828.328125 404.101562 859.449219 398.324219 890.015625 389.519531 C 936.203125 376.210938 977.175781 387.738281 1015.417969 414.359375 C 1026.59375 422.140625 1036.726562 431.011719 1046.054688 440.8125 C 1048.515625 443.398438 1051.945312 446.351562 1049.800781 452.242188 Z M 1049.800781 452.238281 "/><path style=" stroke:none;fill-rule:nonzero;fill:#774922;fill-opacity:1;" d="M 863.269531 419.660156 C 873.980469 415.015625 883.90625 416.394531 893.417969 418.699219 C 923.503906 425.992188 951.945312 437.566406 978.171875 454.085938 C 992.363281 463.03125 1005.414062 473.535156 1015.777344 486.957031 C 1017.46875 489.144531 1020.96875 491.808594 1018.058594 494.558594 C 1015.1875 497.277344 1013.191406 493.261719 1011.46875 491.597656 C 973.523438 454.976562 926.75 436.148438 876.480469 424.289062 C 872.417969 423.332031 868.007812 423.375 863.269531 419.660156 Z M 863.269531 419.660156 "/><path style=" stroke:none;fill-rule:nonzero;fill:#774922;fill-opacity:1;" d="M 1062.125 342.652344 C 1057.699219 342.867188 1056.296875 339.667969 1053.871094 338.199219 C 1024.242188 320.238281 993.382812 306.636719 957.515625 308.839844 C 941.890625 309.800781 926.832031 312.628906 912.25 318.28125 C 883.75 329.332031 855.929688 341.742188 830.15625 359.582031 C 832.359375 354.304688 832.820312 353.367188 837.871094 349.984375 C 864.929688 331.855469 893.789062 317.007812 924.84375 307.398438 C 947.742188 300.3125 971.65625 299.625 994.933594 306.632812 C 1015.960938 312.964844 1036.714844 320.335938 1054.523438 333.867188 C 1057.398438 336.046875 1060.757812 337.976562 1062.125 342.652344 Z M 1062.125 342.652344 "/></g></svg>